<svg xmlns="http://www.w3.org/2000/svg" xml:space="preserve" width="7.11111in" height="7.11111in" version="1.1" style="shape-rendering:geometricPrecision; text-rendering:geometricPrecision; image-rendering:optimizeQuality; fill-rule:evenodd; clip-rule:evenodd" viewBox="0 0 7111 7111" xmlns:xlink="http://www.w3.org/1999/xlink">
 <defs>
  <style type="text/css">
   
    .fil0 {fill:black}
   
  </style>
 </defs>
 <g id="Layer_x0020_1">
  <metadata id="CorelCorpID_0Corel-Layer"></metadata>
  <g id="_698085872">
   <g>
    <g>
     <path class="fil0" d="M6738 5954l-6365 0c-208,0 -376,-168 -376,-370l0 -4051c0,-208 168,-376 376,-376l6365 0c208,0 376,168 376,376l0 4045c0,208 -168,376 -376,376zm-6365 -4594c-92,0 -173,81 -173,173l0 4045c0,92 75,168 173,168l6365 0c98,0 173,-76 173,-168l0 -4045c0,-92 -81,-173 -173,-173l-6365 0z" id="id_101" style="fill: rgb(164, 172, 188);"></path>
    </g>
    <g>
     <path class="fil0" d="M1907 4201c-672,0 -1216,-544 -1216,-1215 0,-672 544,-1215 1216,-1215 671,0 1215,543 1215,1215 5,665 -544,1215 -1215,1215zm0 -2234c-562,0 -1013,457 -1013,1013 0,555 457,1012 1013,1012 555,0 1012,-451 1012,-1012 6,-556 -451,-1013 -1012,-1013z" id="id_102" style="fill: rgb(243, 113, 36);"></path>
    </g>
    <g>
     <path class="fil0" d="M6310 2297l-2436 0c-58,0 -104,-46 -104,-104 0,-58 46,-104 104,-104l2436 0c58,0 104,46 104,104 0,58 -46,104 -104,104z" id="id_103" style="fill: rgb(164, 172, 188);"></path>
    </g>
    <g>
     <path class="fil0" d="M6310 3084l-2436 0c-58,0 -104,-46 -104,-104 0,-58 46,-104 104,-104l2436 0c58,0 104,46 104,104 0,58 -46,104 -104,104z" id="id_104" style="fill: rgb(164, 172, 188);"></path>
    </g>
    <g>
     <path class="fil0" d="M6310 3871l-2436 0c-58,0 -104,-46 -104,-104 0,-58 46,-104 104,-104l2436 0c58,0 104,46 104,104 0,58 -46,104 -104,104z" id="id_105" style="fill: rgb(164, 172, 188);"></path>
    </g>
    <g>
     <path class="fil0" d="M6310 5393l-5520 0c-58,0 -104,-47 -104,-105l0 -428c0,-58 46,-104 104,-104l5520 0c58,0 104,46 104,104l0 428c0,58 -46,105 -104,105zm-5416 -203l5317 0 0 -226 -5317 0 0 226z" id="id_106" style="fill: rgb(164, 172, 188);"></path>
    </g>
    <g>
     <path class="fil0" d="M2769 3790c-35,0 -70,-17 -87,-52 -156,-272 -457,-446 -775,-446 -319,0 -614,174 -776,446 -29,46 -92,63 -139,35 -46,-29 -63,-93 -34,-139 196,-336 561,-544 949,-544 393,0 757,208 948,544 29,46 12,110 -34,139 -18,11 -35,17 -52,17z" id="id_107" style="fill: rgb(243, 113, 36);"></path>
    </g>
    <g>
     <path class="fil0" d="M1907 2980c-261,0 -469,-208 -469,-469 0,-260 208,-469 469,-469 260,0 468,209 468,469 0,261 -208,469 -468,469zm0 -729c-151,0 -267,116 -267,266 0,145 122,266 267,266 144,0 266,-121 266,-266 0,-150 -116,-266 -266,-266z" id="id_108" style="fill: rgb(243, 113, 36);"></path>
    </g>
   </g>
  </g>
 </g>
</svg>