<svg width="64" height="64" viewBox="0 0 64 64" fill="none" xmlns="http://www.w3.org/2000/svg">
<g id="ilu-pagamento-entre-contas">
<path id="Vector" d="M20.6701 34.2592L42.6663 27.0952V8L16.0381 26.4142C14.3632 27.5536 13.333 28.6865 13.333 30.3956C13.333 33.349 16.5569 35.6278 20.6701 34.2592Z" fill="#FF863E"/>
<path id="Vector_2" d="M50.3158 63.0558C46.5215 63.0558 42.7272 62.5682 39.0243 61.5777C37.8205 61.2577 36.9824 60.1605 36.9824 58.911V56.5796C36.9824 56.1377 37.3481 55.772 37.79 55.772C38.2319 55.772 38.5977 56.1377 38.5977 56.5796V58.911C38.5977 59.4291 38.9481 59.8863 39.451 60.0234C46.5672 61.9282 54.0796 61.9129 61.1958 60.0234C61.6986 59.8863 62.0491 59.4291 62.0491 58.911V56.5796C62.0491 56.1377 62.4148 55.772 62.8567 55.772C63.2986 55.772 63.6643 56.1377 63.6643 56.5796V58.911C63.6643 60.1605 62.8262 61.2577 61.6072 61.5777C57.9196 62.5682 54.1253 63.0558 50.3158 63.0558Z" fill="#A4ACBC"/>
<path id="Vector_3" d="M50.3158 55.8942C46.5215 55.8942 42.7272 55.4065 39.0243 54.4161C37.8205 54.0961 36.9824 52.9989 36.9824 51.7494V49.418C36.9824 48.9761 37.3481 48.6104 37.79 48.6104C38.2319 48.6104 38.5977 48.9761 38.5977 49.418V51.7494C38.5977 52.2675 38.9481 52.7246 39.451 52.8618C46.5672 54.7665 54.0796 54.7513 61.1958 52.8618C61.6986 52.7246 62.0491 52.2675 62.0491 51.7494V49.418C62.0491 48.9761 62.4148 48.6104 62.8567 48.6104C63.2986 48.6104 63.6643 48.9761 63.6643 49.418V51.7494C63.6643 52.9989 62.8262 54.0961 61.6072 54.4161C57.9196 55.4065 54.1253 55.8942 50.3158 55.8942Z" fill="#A4ACBC"/>
<path id="Vector_4" d="M50.3158 48.7321C46.5215 48.7321 42.7272 48.2444 39.0243 47.254C37.8205 46.934 36.9824 45.8368 36.9824 44.5873V42.2559C36.9824 41.814 37.3481 41.4482 37.79 41.4482C38.2319 41.4482 38.5977 41.814 38.5977 42.2559V44.5873C38.5977 45.1054 38.9481 45.5625 39.451 45.6997C46.5672 47.6044 54.0796 47.6044 61.1958 45.6997C61.6986 45.5625 62.0491 45.1054 62.0491 44.5873V42.2559C62.0491 41.814 62.4148 41.4482 62.8567 41.4482C63.2986 41.4482 63.6643 41.814 63.6643 42.2559V44.5873C63.6643 45.8368 62.8262 46.934 61.6072 47.254C57.9196 48.2444 54.1253 48.7321 50.3158 48.7321Z" fill="#A4ACBC"/>
<path id="Vector_5" d="M50.3158 42.3627C43.9005 42.3627 36.9824 41.0065 36.9824 38.0046C36.9824 35.0027 43.9005 33.6465 50.3158 33.6465C56.731 33.6465 63.6491 35.0027 63.6491 38.0046C63.6491 41.0065 56.731 42.3627 50.3158 42.3627ZM50.3158 35.2617C42.7272 35.2617 38.5977 37.0751 38.5977 38.0046C38.5977 38.9341 42.7272 40.7474 50.3158 40.7474C57.9043 40.7474 62.0338 38.9341 62.0338 38.0046C62.0338 37.0751 57.9043 35.2617 50.3158 35.2617Z" fill="#A4ACBC"/>
<path id="Vector_6" d="M34.6819 42.5453H4.81524C2.16381 42.5453 0 40.3815 0 37.7301V5.83672C0 3.18529 2.16381 1.02148 4.81524 1.02148H50.621C53.2419 1.05196 55.3752 3.20053 55.3752 5.83672V31.6043C55.3752 32.0462 55.0095 32.412 54.5676 32.412C54.1257 32.412 53.76 32.0462 53.76 31.6043V5.83672C53.76 4.0691 52.3276 2.63672 50.56 2.63672H4.81524C3.04762 2.63672 1.61524 4.0691 1.61524 5.83672V37.7301C1.61524 39.4977 3.04762 40.9301 4.81524 40.9301H34.6819C35.1238 40.9301 35.4895 41.2958 35.4895 41.7377C35.4895 42.1796 35.1238 42.5453 34.6819 42.5453Z" fill="#A4ACBC"/>
<path id="Vector_7" d="M36.2668 48.7167H11.5354C11.2764 48.7167 11.0173 48.5796 10.8649 48.3663C10.7125 48.1529 10.6821 47.8634 10.7887 47.6196L13.2268 41.4482C13.3944 41.0367 13.8668 40.8234 14.2783 40.991C14.6897 41.1586 14.903 41.6158 14.7354 42.0425L12.724 47.1167H36.2821C36.724 47.1167 37.0897 47.4825 37.0897 47.9244C37.0897 48.3663 36.724 48.732 36.2821 48.732L36.2668 48.7167Z" fill="#A4ACBC"/>
</g>
</svg>
